# xmcd
#
# Track frame offsets: 
#        150
#        21503
#        33497
#        48788
#        67709
#        84089
#        99693
#        123034
#        141409
#        158561
#        176893
#        195987
#
# Disc length: 2788 seconds
#
# Revision: 0
# Processed by: cddbd v1.5.2PL0 Copyright (c) Steve Scherf et al.
# Submitted via: ExactAudioCopy v1.3
#
DISCID=910ae20c
DTITLE=Selah Sue - Selah Sue (USA Version)
DYEAR=2011
DGENRE=R&B/Soul
TTITLE0=This World
TTITLE1=Raggamuffin
TTITLE2=On the Run
TTITLE3=Crazy Sufferin Syle
TTITLE4=Mommy
TTITLE5=Fade Away
TTITLE6=Please - Feat. Cee Lo Green
TTITLE7=Peace of Mind
TTITLE8=Crazy Vibes
TTITLE9=Fyah Fyah
TTITLE10=Break
TTITLE11=Just Because I Do
EXTD=
EXTT0=
EXTT1=
EXTT2=
EXTT3=
EXTT4=
EXTT5=
EXTT6=
EXTT7=
EXTT8=
EXTT9=
EXTT10=
EXTT11=
PLAYORDER=
